<svg width="32" height="32" viewBox="0 0 32 32" fill="none" xmlns="http://www.w3.org/2000/svg">
<path d="M16 7C20.7985 7 24.9375 9.11347 26.8574 12.166C25.2051 12.6577 24 14.1879 24 16C24 17.812 25.2052 19.3412 26.8574 19.833C24.9377 22.8859 20.7989 25 16 25C9.37258 25 4 20.9706 4 16C4 11.0294 9.37258 7 16 7ZM16 12C13.7909 12 12 13.7909 12 16C12 18.2091 13.7909 20 16 20C18.2091 20 20 18.2091 20 16C20 13.7909 18.2091 12 16 12Z" fill="white" fill-opacity="0.25"/>
<circle cx="28" cy="16" r="3" fill="white" fill-opacity="0.66"/>
<circle cx="16" cy="16" r="3" fill="white" fill-opacity="0.66"/>
<path d="M16 6C19.509 6 22.7243 7.06553 25.085 8.83594C26.5884 9.9635 27.7638 11.3963 28.4199 13.0293C28.2827 13.0101 28.1425 13 28 13C27.42 13 26.8799 13.1671 26.4209 13.4521C25.8983 12.33 25.0367 11.2999 23.8857 10.4365C21.9033 8.94968 19.1183 8 16 8C12.8817 8 10.0967 8.94968 8.11426 10.4365C6.13244 11.9231 5 13.9002 5 16C5 18.0998 6.13244 20.0769 8.11426 21.5635C10.0967 23.0503 12.8817 24 16 24C19.1183 24 21.9033 23.0503 23.8857 21.5635C25.037 20.6999 25.8984 19.6694 26.4209 18.5469C26.88 18.8321 27.4198 19 28 19C28.1426 19 28.2827 18.989 28.4199 18.9697C27.7639 20.6031 26.5886 22.0363 25.085 23.1641C22.7243 24.9345 19.509 26 16 26C12.491 26 9.27571 24.9345 6.91504 23.1641C4.55404 21.3933 3 18.8706 3 16C3 13.1294 4.55404 10.6067 6.91504 8.83594C9.27571 7.06553 12.491 6 16 6Z" fill="#18F2F2"/>
</svg>
