<svg xmlns="http://www.w3.org/2000/svg" viewBox="0 0 64 64" xmlns:xlink="http://www.w3.org/1999/xlink">
  <defs id="defs3366">
    <linearGradient id="linearGradient4187">
      <stop id="stop4189" offset="0" style="stop-color:#7a6600;stop-opacity:1"/>
      <stop id="stop4191" offset="1" style="stop-color:#ffe400;stop-opacity:0.60843372"/>
    </linearGradient>
    <linearGradient id="linearGradient4178">
      <stop style="stop-color:#d3cc00;stop-opacity:0.44313726" offset="0" id="stop4180"/>
      <stop style="stop-color:#ffef00;stop-opacity:1" offset="1" id="stop4182"/>
    </linearGradient>
    <linearGradient id="linearGradient4166">
      <stop style="stop-color:#7a6600;stop-opacity:1" offset="0" id="stop4168"/>
      <stop style="stop-color:#ffe400;stop-opacity:1" offset="1" id="stop4170"/>
    </linearGradient>
    <linearGradient id="linearGradient4513">
      <stop style="stop-color:#ff0900;stop-opacity:1;" offset="0" id="stop4515"/>
    </linearGradient>
    <marker orient="auto" refY="0.0" refX="0.0" id="Arrow2Lstart" style="overflow:visible">
      <path id="path3909" style="fill-rule:evenodd;stroke-width:0.62500000;stroke-linejoin:round" d="M 8.7185878,4.0337352 L -2.2072895,0.016013256 L 8.7185884,-4.0017078 C 6.9730900,-1.6296469 6.9831476,1.6157441 8.7185878,4.0337352 z " transform="scale(1.1) translate(1,0)"/>
    </marker>
    <linearGradient id="linearGradient3864">
      <stop id="stop3866" offset="0" style="stop-color:#71b2f8;stop-opacity:0.44347826;"/>
      <stop id="stop3868" offset="1" style="stop-color:#002795;stop-opacity:1;"/>
    </linearGradient>
    <radialGradient xlink:href="#linearGradient3864" id="radialGradient2571" gradientUnits="userSpaceOnUse" cx="342.58258" cy="27.256668" fx="342.58258" fy="27.256668" r="19.571428" gradientTransform="matrix(1.6258409,0.5434973,-8.8819886e-2,0.2656996,-215.02413,-170.90186)"/>
    <radialGradient xlink:href="#linearGradient3593" id="radialGradient3352" gradientUnits="userSpaceOnUse" cx="345.28433" cy="15.560534" fx="345.28433" fy="15.560534" r="19.571428" gradientTransform="translate(-0.1767767,-2.6516504)"/>
    <linearGradient id="linearGradient3593">
      <stop style="stop-color:#c8e0f9;stop-opacity:1;" offset="0" id="stop3595"/>
      <stop style="stop-color:#637dca;stop-opacity:1;" offset="1" id="stop3597"/>
    </linearGradient>
    <radialGradient xlink:href="#linearGradient3593" id="radialGradient3354" gradientUnits="userSpaceOnUse" cx="330.63791" cy="39.962704" fx="330.63791" fy="39.962704" r="19.571428" gradientTransform="translate(-0.1767767,-2.6516504)"/>

    <radialGradient xlink:href="#linearGradient3864" id="radialGradient3369" gradientUnits="userSpaceOnUse" gradientTransform="matrix(1.6258409,0.5434973,-8.8819886e-2,0.2656996,-461.81066,-173.06271)" cx="342.58258" cy="27.256668" fx="342.58258" fy="27.256668" r="19.571428"/>
    <linearGradient xlink:href="#linearGradient4178" id="linearGradient3828" x1="20.383333" y1="32.634235" x2="52.726578" y2="32.634235" gradientUnits="userSpaceOnUse" gradientTransform="matrix(1.1630793,0,0,1.1396343,77.483402,3.4151415)"/>
    <linearGradient xlink:href="#linearGradient3864-1" id="linearGradient3828-2" x1="20.383333" y1="32.634235" x2="52.726578" y2="32.634235" gradientUnits="userSpaceOnUse"/>
    <linearGradient id="linearGradient3864-1">
      <stop id="stop3866-6" offset="0" style="stop-color:#71b2f8;stop-opacity:1;"/>
      <stop id="stop3868-7" offset="1" style="stop-color:#002795;stop-opacity:1;"/>
    </linearGradient>
    <linearGradient gradientTransform="matrix(1.1630793,0,0,1.1396343,53.744012,14.322778)" y2="32.634235" x2="52.726578" y1="32.634235" x1="20.383333" gradientUnits="userSpaceOnUse" id="linearGradient3845" xlink:href="#linearGradient4166"/>
    <linearGradient xlink:href="#linearGradient4187" id="linearGradient4179" x1="-6.8978205" y1="38.9702" x2="27.605837" y2="48.850491" gradientUnits="userSpaceOnUse" gradientTransform="translate(80,0)"/>
  </defs>

  <g id="layer1">
    <path style="fill:#fce94f;stroke:#302b00;stroke-width:2;stroke-linecap:butt;stroke-linejoin:round;stroke-opacity:1" d="M 59,39 C 52,49 34,57 21,57 L 5,51 c 13,0 23,-8 30,-18 z" id="path3881-2"/>
    <path style="fill:#c4a000;stroke:#302b00;stroke-width:2;stroke-linecap:butt;stroke-linejoin:round;stroke-opacity:1" d="M 21,57 21,41 C 33,40 43,25 47,13 L 59,39 C 52,49 34,57 21,57 z" id="path3861-56"/>
    <path style="opacity:0.6;fill:#fce94f;stroke:#302b00;stroke-width:2;stroke-linecap:butt;stroke-linejoin:round;stroke-opacity:1" d="M 59,39 C 52,49 34,57 21,57 L 5,51 c 13,0 23,-8 30,-18 z" id="path3881"/>
    <path style="fill:#c4a000;stroke:#302b00;stroke-width:2;stroke-linecap:butt;stroke-linejoin:round;stroke-opacity:1" d="M 5,51 5,35 C 17,34 19,19 23,7 L 35,33 C 28,43 18,51 5,51 z" id="path3861-5"/>
    <g id="g3836" transform="translate(48,4)">
      <path id="path3031" d="m -43,31 16,6 0,16 -16,-6 z" style="fill:none;stroke:#a40000;stroke-width:6;stroke-linecap:butt;stroke-linejoin:round;stroke-opacity:1"/>
      <path id="path3031-6" d="m -43,31 16,6 0,16 -16,-6 z" style="fill:none;stroke:#ef2929;stroke-width:2;stroke-linecap:butt;stroke-linejoin:round;stroke-opacity:1"/>
    </g>
    <g id="g4027">
      <path id="path3942" d="M 6,48 C 32,48 47,44 58,6" style="fill:none;stroke:#280000;stroke-width:8;stroke-linecap:round;stroke-linejoin:miter;stroke-miterlimit:4;stroke-opacity:1;stroke-dasharray:8, 16;stroke-dashoffset:1.6"/>
      <path id="path3942-7" d="M 6,48 C 32,48 47,44 58,6" style="fill:none;stroke:#cc0000;stroke-width:4;stroke-linecap:round;stroke-linejoin:miter;stroke-miterlimit:4;stroke-opacity:1;stroke-dasharray:8, 16;stroke-dashoffset:1.6"/>
      <path id="path3942-7-0" d="M 6,47 C 32,47 46.257799,43.628016 57.257799,5.6280162" style="fill:none;stroke:#ef2929;stroke-width:2;stroke-linecap:round;stroke-linejoin:miter;stroke-miterlimit:4;stroke-opacity:1;stroke-dasharray:8, 16;stroke-dashoffset:1.6"/>
    </g>
    <path style="opacity:0.6;fill:#c4a000;stroke:#302b00;stroke-width:2;stroke-linecap:butt;stroke-linejoin:round;stroke-opacity:1" d="M 21,57 21,41 C 33,40 43,25 47,13 L 59,39 C 52,49 34,57 21,57 z" id="path3861"/>
    <path style="fill:#fce94f;stroke:#302b00;stroke-width:2;stroke-linecap:butt;stroke-linejoin:round;stroke-opacity:1" d="M 47,13 C 43,25 33,41 21,41 L 5,35 C 17,34 19,19 23,7 z" id="path3881-3"/>
    <path style="fill:none;stroke:#a40000;stroke-width:6;stroke-linecap:round;stroke-linejoin:round;stroke-miterlimit:4;stroke-opacity:1;stroke-dasharray:none" d="m 23,7 24,6 12,26" id="path3922"/>
    <path style="fill:none;stroke:#ef2929;stroke-width:2;stroke-linecap:round;stroke-linejoin:round;stroke-miterlimit:4;stroke-opacity:1;stroke-dasharray:none" d="m 23,7 24,6 12,26" id="path3922-9"/>
    <path style="fill:none;stroke:#a40000;stroke-width:6;stroke-linecap:round;stroke-linejoin:round;stroke-miterlimit:4;stroke-opacity:1;stroke-dasharray:none" d="m 5,35 16,6 0,16" id="path4032"/>
    <path style="fill:none;stroke:#ef2929;stroke-width:2;stroke-linecap:round;stroke-linejoin:round;stroke-miterlimit:4;stroke-opacity:1;stroke-dasharray:none" d="m 5,41 0,-6 16,6 0,16 -9,-3.4" id="path4034"/>
  </g>
</svg>
