<svg width="32" height="32" viewBox="0 0 32 32" fill="none" xmlns="http://www.w3.org/2000/svg">
<path d="M16 1L21.1962 4V10L16 13L10.8038 10V4L16 1Z" fill="#B2B2B2" stroke="black"/>
<path d="M28.9904 8.49999L28.9904 14.5L23.7942 17.5L18.5981 14.5L18.5981 8.49999L23.7942 5.49999L28.9904 8.49999Z" fill="#18F2F2" stroke="black"/>
<path d="M28.9904 23.5L23.7942 26.5L18.5981 23.5L18.5981 17.5L23.7942 14.5L28.9904 17.5L28.9904 23.5Z" fill="#18F2F2" stroke="black"/>
<path d="M16 31L10.8039 28L10.8039 22L16 19L21.1962 22L21.1962 28L16 31Z" fill="#18F2F2" stroke="black"/>
<path d="M3.00963 23.5L3.00963 17.5L8.20578 14.5L13.4019 17.5L13.4019 23.5L8.20578 26.5L3.00963 23.5Z" fill="#18F2F2" stroke="black"/>
<path d="M10.8037 6.99902V10L13.4023 11.5V14.5L8.20605 17.5L3.00977 14.5V8.5L8.20605 5.5L10.8037 6.99902Z" fill="#18F2F2"/>
<path d="M10.8037 6.99902H11.3037V6.71028L11.0536 6.56596L10.8037 6.99902ZM10.8037 10H10.3037V10.2887L10.5538 10.433L10.8037 10ZM13.4023 11.5H13.9023V11.2113L13.6523 11.067L13.4023 11.5ZM13.4023 14.5L13.6523 14.933L13.9023 14.7887V14.5H13.4023ZM8.20605 17.5L7.95606 17.933L8.20605 18.0773L8.45605 17.933L8.20605 17.5ZM3.00977 14.5H2.50977V14.7887L2.75977 14.933L3.00977 14.5ZM3.00977 8.5L2.75977 8.06698L2.50977 8.21132V8.5H3.00977ZM8.20605 5.5L8.45596 5.06693L8.206 4.92269L7.95606 5.06698L8.20605 5.5ZM10.8037 6.99902H10.3037V10H10.8037H11.3037V6.99902H10.8037ZM10.8037 10L10.5538 10.433L13.1524 11.933L13.4023 11.5L13.6523 11.067L11.0537 9.56696L10.8037 10ZM13.4023 11.5H12.9023V14.5H13.4023H13.9023V11.5H13.4023ZM13.4023 14.5L13.1523 14.067L7.95606 17.067L8.20605 17.5L8.45605 17.933L13.6523 14.933L13.4023 14.5ZM8.20605 17.5L8.45605 17.067L3.25976 14.067L3.00977 14.5L2.75977 14.933L7.95606 17.933L8.20605 17.5ZM3.00977 14.5H3.50977V8.5H3.00977H2.50977V14.5H3.00977ZM3.00977 8.5L3.25976 8.93302L8.45605 5.93302L8.20605 5.5L7.95606 5.06698L2.75977 8.06698L3.00977 8.5ZM8.20605 5.5L7.95615 5.93307L10.5538 7.43209L10.8037 6.99902L11.0536 6.56596L8.45596 5.06693L8.20605 5.5Z" fill="black"/>
</svg>
