<svg width="32" height="32" viewBox="0 0 32 32" fill="none" xmlns="http://www.w3.org/2000/svg">
<path d="M15.5 1.28868C15.8094 1.11004 16.1906 1.11004 16.5 1.28868L28.4904 8.21132C28.7998 8.38996 28.9904 8.72008 28.9904 9.07735V22.9226C28.9904 23.2799 28.7998 23.61 28.4904 23.7887L16.5 30.7113C16.1906 30.89 15.8094 30.89 15.5 30.7113L3.50962 23.7887C3.20022 23.61 3.00962 23.2799 3.00962 22.9226V9.07735C3.00962 8.72009 3.20022 8.38996 3.50962 8.21132L15.5 1.28868Z" stroke="black"/>
<path d="M15.75 2.14434C15.9047 2.05502 16.0953 2.05502 16.25 2.14434L27.8744 8.85566C28.0291 8.94498 28.1244 9.11004 28.1244 9.28868V22.7113C28.1244 22.89 28.0291 23.055 27.8744 23.1443L16.25 29.8557C16.0953 29.945 15.9047 29.945 15.75 29.8557L4.12565 23.1443C3.97094 23.055 3.87564 22.89 3.87564 22.7113V9.28868C3.87564 9.11004 3.97094 8.94498 4.12564 8.85566L15.75 2.14434Z" stroke="#18F2F2" stroke-width="1.5" stroke-linecap="round" stroke-dasharray="4 3"/>
<path d="M16 5L21.1962 8V14L16 17L10.8038 14V8L16 5Z" fill="#B2B2B2" stroke="black"/>
<path d="M11 13L16.1962 16V22L11 25L5.80385 22V16L11 13Z" fill="#B2B2B2" stroke="black"/>
<path d="M21 13L26.1962 16V22L21 25L15.8038 22V16L21 13Z" fill="#B2B2B2" stroke="black"/>
</svg>
